<svg width="99" height="16" viewBox="0 0 99 16" fill="none" xmlns="http://www.w3.org/2000/svg">
<path d="M8.19564e-07 14.8V0.799998H8.1C9.68667 0.799998 10.8667 1.1 11.64 1.7C12.4133 2.3 12.8 3.24667 12.8 4.54C12.8 5.26 12.62 5.88 12.26 6.4C11.9133 6.90667 11.4267 7.27333 10.8 7.5C11.6667 7.7 12.3133 8.08 12.74 8.64C13.18 9.2 13.4 9.93333 13.4 10.84C13.4 11.7067 13.22 12.44 12.86 13.04C12.5 13.6267 11.9267 14.0667 11.14 14.36C10.3667 14.6533 9.34667 14.8 8.08 14.8H8.19564e-07ZM5.28 11.36H6.48C7.10667 11.36 7.53333 11.28 7.76 11.12C8 10.96 8.12 10.68 8.12 10.28C8.12 9.89333 8 9.62 7.76 9.46C7.52 9.3 7.08 9.22 6.44 9.22H5.28V11.36ZM5.28 6.18H6.22C6.67333 6.18 7 6.10667 7.2 5.96C7.41333 5.8 7.52 5.54667 7.52 5.2C7.52 4.85333 7.41333 4.60667 7.2 4.46C7 4.31333 6.68667 4.24 6.26 4.24H5.28V6.18ZM14.6094 14.8V4.2H19.0094V14.8H14.6094ZM16.8094 3.2C16.0094 3.2 15.4094 3.06 15.0094 2.78C14.6094 2.48667 14.4094 2.09333 14.4094 1.6C14.4094 1.10667 14.6094 0.719999 15.0094 0.439998C15.4094 0.146665 16.0094 -9.53674e-07 16.8094 -9.53674e-07C17.6094 -9.53674e-07 18.2094 0.146665 18.6094 0.439998C19.0094 0.719999 19.2094 1.10667 19.2094 1.6C19.2094 2.09333 19.0094 2.48667 18.6094 2.78C18.2094 3.06 17.6094 3.2 16.8094 3.2ZM20.5055 14.8V4.2H24.5855V5.4C24.6788 5.12 24.8188 4.86667 25.0055 4.64C25.2055 4.41333 25.4455 4.23333 25.7255 4.1C26.0188 3.96667 26.3455 3.9 26.7055 3.9C26.8655 3.9 27.0321 3.91333 27.2055 3.94C27.3921 3.95333 27.5588 3.99333 27.7055 4.06V7.72C27.5321 7.64 27.3255 7.58 27.0855 7.54C26.8455 7.48667 26.6188 7.46 26.4055 7.46C26.0321 7.46 25.7321 7.50667 25.5055 7.6C25.2921 7.68 25.1388 7.80667 25.0455 7.98C24.9521 8.15333 24.9055 8.36 24.9055 8.6V14.8H20.5055ZM32.4109 15.1C31.6509 15.1 30.9509 14.9133 30.3109 14.54C29.6843 14.1533 29.1776 13.56 28.7909 12.76C28.4043 11.96 28.2109 10.9333 28.2109 9.68V9.3C28.2109 8.12667 28.3909 7.14 28.7509 6.34C29.1109 5.54 29.6043 4.93333 30.2309 4.52C30.8709 4.10667 31.5976 3.9 32.4109 3.9C33.0109 3.9 33.5576 4.02 34.0509 4.26C34.5576 4.48667 34.9776 4.83333 35.3109 5.3V0.799998H39.7109V14.8H35.6309V13.6C35.3909 14.0533 35.0309 14.42 34.5509 14.7C34.0709 14.9667 33.3576 15.1 32.4109 15.1ZM33.9709 11.54C34.1976 11.54 34.4109 11.4867 34.6109 11.38C34.8109 11.26 34.9776 11.0733 35.1109 10.82C35.2443 10.5533 35.3109 10.2133 35.3109 9.8V9.2C35.3109 8.78667 35.2443 8.45333 35.1109 8.2C34.9909 7.94667 34.8309 7.76 34.6309 7.64C34.4309 7.52 34.2109 7.46 33.9709 7.46C33.6509 7.46 33.3643 7.6 33.1109 7.88C32.8576 8.16 32.7309 8.63333 32.7309 9.3V9.7C32.7309 10.38 32.8643 10.86 33.1309 11.14C33.4109 11.4067 33.6909 11.54 33.9709 11.54ZM41.2109 14.8V0.799998H49.3109C50.8976 0.799998 52.0776 1.1 52.8509 1.7C53.6243 2.3 54.0109 3.24667 54.0109 4.54C54.0109 5.26 53.8309 5.88 53.4709 6.4C53.1243 6.90667 52.6376 7.27333 52.0109 7.5C52.8776 7.7 53.5243 8.08 53.9509 8.64C54.3909 9.2 54.6109 9.93333 54.6109 10.84C54.6109 11.7067 54.4309 12.44 54.0709 13.04C53.7109 13.6267 53.1376 14.0667 52.3509 14.36C51.5776 14.6533 50.5576 14.8 49.2909 14.8H41.2109ZM46.4909 11.36H47.6909C48.3176 11.36 48.7443 11.28 48.9709 11.12C49.2109 10.96 49.3309 10.68 49.3309 10.28C49.3309 9.89333 49.2109 9.62 48.9709 9.46C48.7309 9.3 48.2909 9.22 47.6509 9.22H46.4909V11.36ZM46.4909 6.18H47.4309C47.8843 6.18 48.2109 6.10667 48.4109 5.96C48.6243 5.8 48.7309 5.54667 48.7309 5.2C48.7309 4.85333 48.6243 4.60667 48.4109 4.46C48.2109 4.31333 47.8976 4.24 47.4709 4.24H46.4909V6.18ZM61.1203 15.1C60.0403 15.1 59.0603 14.9067 58.1803 14.52C57.3003 14.12 56.6003 13.5133 56.0803 12.7C55.5736 11.8867 55.3203 10.8533 55.3203 9.6V9.2C55.3203 8.04 55.5736 7.06667 56.0803 6.28C56.6003 5.49333 57.3003 4.9 58.1803 4.5C59.0603 4.1 60.0403 3.9 61.1203 3.9C62.2136 3.9 63.1936 4.1 64.0603 4.5C64.9403 4.9 65.6336 5.49333 66.1403 6.28C66.6603 7.06667 66.9203 8.04 66.9203 9.2V9.6C66.9203 10.8 66.6603 11.8133 66.1403 12.64C65.6336 13.4533 64.9403 14.0667 64.0603 14.48C63.1936 14.8933 62.2136 15.1 61.1203 15.1ZM61.1203 11.54C61.387 11.54 61.6136 11.48 61.8003 11.36C62.0003 11.2267 62.147 11.02 62.2403 10.74C62.347 10.4467 62.4003 10.0667 62.4003 9.6V9.2C62.4003 8.78667 62.347 8.45333 62.2403 8.2C62.147 7.94667 62.0003 7.76 61.8003 7.64C61.6136 7.52 61.387 7.46 61.1203 7.46C60.8536 7.46 60.6203 7.52 60.4203 7.64C60.2336 7.76 60.087 7.94667 59.9803 8.2C59.887 8.45333 59.8403 8.78667 59.8403 9.2V9.6C59.8403 10.0667 59.887 10.4467 59.9803 10.74C60.087 11.02 60.2336 11.2267 60.4203 11.36C60.6203 11.48 60.8536 11.54 61.1203 11.54ZM71.0273 15.1C70.2673 15.1 69.614 14.9533 69.0673 14.66C68.534 14.3533 68.1273 13.9467 67.8473 13.44C67.5673 12.92 67.4273 12.34 67.4273 11.7C67.4273 10.6467 67.754 9.81333 68.4073 9.2C69.0607 8.58667 70.1007 8.28 71.5273 8.28H73.8273V8C73.8273 7.65333 73.754 7.41333 73.6073 7.28C73.4607 7.13333 73.2673 7.06 73.0273 7.06C72.774 7.06 72.5873 7.1 72.4673 7.18C72.3607 7.24667 72.2807 7.35333 72.2273 7.5H68.0273C68.0673 6.80667 68.2673 6.19333 68.6273 5.66C69.0007 5.11333 69.5607 4.68667 70.3073 4.38C71.054 4.06 71.994 3.9 73.1273 3.9C74.1273 3.9 75.0073 4.04667 75.7673 4.34C76.5407 4.63333 77.1407 5.10667 77.5673 5.76C78.0073 6.41333 78.2273 7.29333 78.2273 8.4V12.1C78.2273 12.66 78.2407 13.1533 78.2673 13.58C78.3073 13.9933 78.3607 14.4 78.4273 14.8H74.2273C74.174 14.6533 74.1273 14.4933 74.0873 14.32C74.0473 14.1467 74.0273 13.9067 74.0273 13.6C73.7873 14 73.454 14.3533 73.0273 14.66C72.6007 14.9533 71.934 15.1 71.0273 15.1ZM72.7273 11.94C72.9807 11.94 73.1873 11.9 73.3473 11.82C73.5073 11.7267 73.6273 11.6 73.7073 11.44C73.7873 11.2667 73.8273 11.0533 73.8273 10.8V10.6H72.7273C72.474 10.6 72.2807 10.6533 72.1473 10.76C72.014 10.8667 71.9473 11.0333 71.9473 11.26C71.9473 11.4867 72.014 11.66 72.1473 11.78C72.2807 11.8867 72.474 11.94 72.7273 11.94ZM79.5289 14.8V4.2H83.6089V5.4C83.7022 5.12 83.8422 4.86667 84.0289 4.64C84.2289 4.41333 84.4689 4.23333 84.7489 4.1C85.0422 3.96667 85.3689 3.9 85.7289 3.9C85.8889 3.9 86.0556 3.91333 86.2289 3.94C86.4156 3.95333 86.5822 3.99333 86.7289 4.06V7.72C86.5556 7.64 86.3489 7.58 86.1089 7.54C85.8689 7.48667 85.6422 7.46 85.4289 7.46C85.0556 7.46 84.7556 7.50667 84.5289 7.6C84.3156 7.68 84.1622 7.80667 84.0689 7.98C83.9756 8.15333 83.9289 8.36 83.9289 8.6V14.8H79.5289ZM91.4344 15.1C90.6744 15.1 89.9744 14.9133 89.3344 14.54C88.7077 14.1533 88.201 13.56 87.8144 12.76C87.4277 11.96 87.2344 10.9333 87.2344 9.68V9.3C87.2344 8.12667 87.4144 7.14 87.7744 6.34C88.1344 5.54 88.6277 4.93333 89.2544 4.52C89.8944 4.10667 90.621 3.9 91.4344 3.9C92.0344 3.9 92.581 4.02 93.0744 4.26C93.581 4.48667 94.001 4.83333 94.3344 5.3V0.799998H98.7344V14.8H94.6544V13.6C94.4144 14.0533 94.0544 14.42 93.5744 14.7C93.0944 14.9667 92.381 15.1 91.4344 15.1ZM92.9944 11.54C93.221 11.54 93.4344 11.4867 93.6344 11.38C93.8344 11.26 94.001 11.0733 94.1344 10.82C94.2677 10.5533 94.3344 10.2133 94.3344 9.8V9.2C94.3344 8.78667 94.2677 8.45333 94.1344 8.2C94.0144 7.94667 93.8544 7.76 93.6544 7.64C93.4544 7.52 93.2344 7.46 92.9944 7.46C92.6744 7.46 92.3877 7.6 92.1344 7.88C91.881 8.16 91.7544 8.63333 91.7544 9.3V9.7C91.7544 10.38 91.8877 10.86 92.1544 11.14C92.4344 11.4067 92.7144 11.54 92.9944 11.54Z" fill="url(#paint0_linear_3_17)"/>
<defs>
<linearGradient id="paint0_linear_3_17" x1="-0.799999" y1="6.3" x2="100.2" y2="6.3" gradientUnits="userSpaceOnUse">
<stop stop-color="#FF973C"/>
<stop offset="1" stop-color="#ABD94B"/>
</linearGradient>
</defs>
</svg>
